<svg width="964" height="143" viewBox="0 0 964 143" fill="none" xmlns="http://www.w3.org/2000/svg">
<path d="M963.215 0.59375H0.554688V142.181H963.215V0.59375Z" fill="url(#paint0_linear_9058_200174)"/>
<g opacity="0.03">
<path d="M80.4648 0.214844H0.214844V14.4156H80.4648V0.214844Z" fill="url(#paint1_linear_9058_200174)" stroke="#E6E7E8" stroke-width="0.43" stroke-miterlimit="10"/>
<path d="M160.699 0.214844H80.4492V14.4156H160.699V0.214844Z" fill="url(#paint2_linear_9058_200174)" stroke="#E6E7E8" stroke-width="0.43" stroke-miterlimit="10"/>
<path d="M240.949 0.214844H160.699V14.4156H240.949V0.214844Z" fill="url(#paint3_linear_9058_200174)" stroke="#E6E7E8" stroke-width="0.43" stroke-miterlimit="10"/>
<path d="M321.18 0.214844H240.93V14.4156H321.18V0.214844Z" fill="url(#paint4_linear_9058_200174)" stroke="#E6E7E8" stroke-width="0.43" stroke-miterlimit="10"/>
<path d="M401.434 0.214844H321.184V14.4156H401.434V0.214844Z" fill="url(#paint5_linear_9058_200174)" stroke="#E6E7E8" stroke-width="0.43" stroke-miterlimit="10"/>
<path d="M481.684 0.214844H401.434V14.4156H481.684V0.214844Z" fill="url(#paint6_linear_9058_200174)" stroke="#E6E7E8" stroke-width="0.43" stroke-miterlimit="10"/>
<path d="M561.914 0.214844H481.664V14.4156H561.914V0.214844Z" fill="url(#paint7_linear_9058_200174)" stroke="#E6E7E8" stroke-width="0.43" stroke-miterlimit="10"/>
<path d="M642.168 0.214844H561.918V14.4156H642.168V0.214844Z" fill="url(#paint8_linear_9058_200174)" stroke="#E6E7E8" stroke-width="0.43" stroke-miterlimit="10"/>
<path d="M722.418 0.214844H642.168V14.4156H722.418V0.214844Z" fill="url(#paint9_linear_9058_200174)" stroke="#E6E7E8" stroke-width="0.43" stroke-miterlimit="10"/>
<path d="M802.648 0.214844H722.398V14.4156H802.648V0.214844Z" fill="url(#paint10_linear_9058_200174)" stroke="#E6E7E8" stroke-width="0.43" stroke-miterlimit="10"/>
<path d="M882.898 0.214844H802.648V14.4156H882.898V0.214844Z" fill="url(#paint11_linear_9058_200174)" stroke="#E6E7E8" stroke-width="0.43" stroke-miterlimit="10"/>
<path d="M963.152 0.214844H882.902V14.4156H963.152V0.214844Z" fill="url(#paint12_linear_9058_200174)" stroke="#E6E7E8" stroke-width="0.43" stroke-miterlimit="10"/>
<path d="M80.4648 14.416H0.214844V28.6168H80.4648V14.416Z" fill="url(#paint13_linear_9058_200174)" stroke="#E6E7E8" stroke-width="0.43" stroke-miterlimit="10"/>
<path d="M160.699 14.416H80.4492V28.6168H160.699V14.416Z" fill="url(#paint14_linear_9058_200174)" stroke="#E6E7E8" stroke-width="0.43" stroke-miterlimit="10"/>
<path d="M240.949 14.416H160.699V28.6168H240.949V14.416Z" fill="url(#paint15_linear_9058_200174)" stroke="#E6E7E8" stroke-width="0.43" stroke-miterlimit="10"/>
<path d="M321.18 14.416H240.93V28.6168H321.18V14.416Z" fill="url(#paint16_linear_9058_200174)" stroke="#E6E7E8" stroke-width="0.43" stroke-miterlimit="10"/>
<path d="M401.434 14.416H321.184V28.6168H401.434V14.416Z" fill="url(#paint17_linear_9058_200174)" stroke="#E6E7E8" stroke-width="0.43" stroke-miterlimit="10"/>
<path d="M481.684 14.416H401.434V28.6168H481.684V14.416Z" fill="url(#paint18_linear_9058_200174)" stroke="#E6E7E8" stroke-width="0.43" stroke-miterlimit="10"/>
<path d="M561.914 14.416H481.664V28.6168H561.914V14.416Z" fill="url(#paint19_linear_9058_200174)" stroke="#E6E7E8" stroke-width="0.43" stroke-miterlimit="10"/>
<path d="M642.168 14.416H561.918V28.6168H642.168V14.416Z" fill="url(#paint20_linear_9058_200174)" stroke="#E6E7E8" stroke-width="0.43" stroke-miterlimit="10"/>
<path d="M722.418 14.416H642.168V28.6168H722.418V14.416Z" fill="url(#paint21_linear_9058_200174)" stroke="#E6E7E8" stroke-width="0.43" stroke-miterlimit="10"/>
<path d="M802.648 14.416H722.398V28.6168H802.648V14.416Z" fill="url(#paint22_linear_9058_200174)" stroke="#E6E7E8" stroke-width="0.43" stroke-miterlimit="10"/>
<path d="M882.898 14.416H802.648V28.6168H882.898V14.416Z" fill="url(#paint23_linear_9058_200174)" stroke="#E6E7E8" stroke-width="0.43" stroke-miterlimit="10"/>
<path d="M963.152 14.416H882.902V28.6168H963.152V14.416Z" fill="url(#paint24_linear_9058_200174)" stroke="#E6E7E8" stroke-width="0.43" stroke-miterlimit="10"/>
<path d="M80.4648 28.6143H0.214844V42.815H80.4648V28.6143Z" fill="url(#paint25_linear_9058_200174)" stroke="#E6E7E8" stroke-width="0.43" stroke-miterlimit="10"/>
<path d="M160.699 28.6143H80.4492V42.815H160.699V28.6143Z" fill="url(#paint26_linear_9058_200174)" stroke="#E6E7E8" stroke-width="0.43" stroke-miterlimit="10"/>
<path d="M240.949 28.6143H160.699V42.815H240.949V28.6143Z" fill="url(#paint27_linear_9058_200174)" stroke="#E6E7E8" stroke-width="0.43" stroke-miterlimit="10"/>
<path d="M321.18 28.6143H240.93V42.815H321.18V28.6143Z" fill="url(#paint28_linear_9058_200174)" stroke="#E6E7E8" stroke-width="0.43" stroke-miterlimit="10"/>
<path d="M401.434 28.6143H321.184V42.815H401.434V28.6143Z" fill="url(#paint29_linear_9058_200174)" stroke="#E6E7E8" stroke-width="0.43" stroke-miterlimit="10"/>
<path d="M481.684 28.6143H401.434V42.815H481.684V28.6143Z" fill="url(#paint30_linear_9058_200174)" stroke="#E6E7E8" stroke-width="0.43" stroke-miterlimit="10"/>
<path d="M561.914 28.6143H481.664V42.815H561.914V28.6143Z" fill="url(#paint31_linear_9058_200174)" stroke="#E6E7E8" stroke-width="0.43" stroke-miterlimit="10"/>
<path d="M642.168 28.6143H561.918V42.815H642.168V28.6143Z" fill="url(#paint32_linear_9058_200174)" stroke="#E6E7E8" stroke-width="0.43" stroke-miterlimit="10"/>
<path d="M722.418 28.6143H642.168V42.815H722.418V28.6143Z" fill="url(#paint33_linear_9058_200174)" stroke="#E6E7E8" stroke-width="0.43" stroke-miterlimit="10"/>
<path d="M802.648 28.6143H722.398V42.815H802.648V28.6143Z" fill="url(#paint34_linear_9058_200174)" stroke="#E6E7E8" stroke-width="0.43" stroke-miterlimit="10"/>
<path d="M882.898 28.6143H802.648V42.815H882.898V28.6143Z" fill="url(#paint35_linear_9058_200174)" stroke="#E6E7E8" stroke-width="0.43" stroke-miterlimit="10"/>
<path d="M963.152 28.6143H882.902V42.815H963.152V28.6143Z" fill="url(#paint36_linear_9058_200174)" stroke="#E6E7E8" stroke-width="0.43" stroke-miterlimit="10"/>
<path d="M80.4648 42.8145H0.214844V57.0152H80.4648V42.8145Z" fill="url(#paint37_linear_9058_200174)" stroke="#E6E7E8" stroke-width="0.43" stroke-miterlimit="10"/>
<path d="M160.699 42.8145H80.4492V57.0152H160.699V42.8145Z" fill="url(#paint38_linear_9058_200174)" stroke="#E6E7E8" stroke-width="0.43" stroke-miterlimit="10"/>
<path d="M240.949 42.8145H160.699V57.0152H240.949V42.8145Z" fill="url(#paint39_linear_9058_200174)" stroke="#E6E7E8" stroke-width="0.43" stroke-miterlimit="10"/>
<path d="M321.18 42.8145H240.93V57.0152H321.18V42.8145Z" fill="url(#paint40_linear_9058_200174)" stroke="#E6E7E8" stroke-width="0.43" stroke-miterlimit="10"/>
<path d="M401.434 42.8145H321.184V57.0152H401.434V42.8145Z" fill="url(#paint41_linear_9058_200174)" stroke="#E6E7E8" stroke-width="0.43" stroke-miterlimit="10"/>
<path d="M481.684 42.8145H401.434V57.0152H481.684V42.8145Z" fill="url(#paint42_linear_9058_200174)" stroke="#E6E7E8" stroke-width="0.43" stroke-miterlimit="10"/>
<path d="M561.914 42.8145H481.664V57.0152H561.914V42.8145Z" fill="url(#paint43_linear_9058_200174)" stroke="#E6E7E8" stroke-width="0.43" stroke-miterlimit="10"/>
<path d="M642.168 42.8145H561.918V57.0152H642.168V42.8145Z" fill="url(#paint44_linear_9058_200174)" stroke="#E6E7E8" stroke-width="0.43" stroke-miterlimit="10"/>
<path d="M722.418 42.8145H642.168V57.0152H722.418V42.8145Z" fill="url(#paint45_linear_9058_200174)" stroke="#E6E7E8" stroke-width="0.43" stroke-miterlimit="10"/>
<path d="M802.648 42.8145H722.398V57.0152H802.648V42.8145Z" fill="url(#paint46_linear_9058_200174)" stroke="#E6E7E8" stroke-width="0.43" stroke-miterlimit="10"/>
<path d="M882.898 42.8145H802.648V57.0152H882.898V42.8145Z" fill="url(#paint47_linear_9058_200174)" stroke="#E6E7E8" stroke-width="0.43" stroke-miterlimit="10"/>
<path d="M963.152 42.8145H882.902V57.0152H963.152V42.8145Z" fill="url(#paint48_linear_9058_200174)" stroke="#E6E7E8" stroke-width="0.43" stroke-miterlimit="10"/>
<path d="M80.4648 57.0156H0.214844V71.2164H80.4648V57.0156Z" fill="url(#paint49_linear_9058_200174)" stroke="#E6E7E8" stroke-width="0.43" stroke-miterlimit="10"/>
<path d="M160.699 57.0156H80.4492V71.2164H160.699V57.0156Z" fill="url(#paint50_linear_9058_200174)" stroke="#E6E7E8" stroke-width="0.43" stroke-miterlimit="10"/>
<path d="M240.949 57.0156H160.699V71.2164H240.949V57.0156Z" fill="url(#paint51_linear_9058_200174)" stroke="#E6E7E8" stroke-width="0.43" stroke-miterlimit="10"/>
<path d="M321.18 57.0156H240.93V71.2164H321.18V57.0156Z" fill="url(#paint52_linear_9058_200174)" stroke="#E6E7E8" stroke-width="0.43" stroke-miterlimit="10"/>
<path d="M401.434 57.0156H321.184V71.2164H401.434V57.0156Z" fill="url(#paint53_linear_9058_200174)" stroke="#E6E7E8" stroke-width="0.43" stroke-miterlimit="10"/>
<path d="M481.684 57.0156H401.434V71.2164H481.684V57.0156Z" fill="url(#paint54_linear_9058_200174)" stroke="#E6E7E8" stroke-width="0.43" stroke-miterlimit="10"/>
<path d="M561.914 57.0156H481.664V71.2164H561.914V57.0156Z" fill="url(#paint55_linear_9058_200174)" stroke="#E6E7E8" stroke-width="0.43" stroke-miterlimit="10"/>
<path d="M642.168 57.0156H561.918V71.2164H642.168V57.0156Z" fill="url(#paint56_linear_9058_200174)" stroke="#E6E7E8" stroke-width="0.43" stroke-miterlimit="10"/>
<path d="M722.418 57.0156H642.168V71.2164H722.418V57.0156Z" fill="url(#paint57_linear_9058_200174)" stroke="#E6E7E8" stroke-width="0.43" stroke-miterlimit="10"/>
<path d="M802.648 57.0156H722.398V71.2164H802.648V57.0156Z" fill="url(#paint58_linear_9058_200174)" stroke="#E6E7E8" stroke-width="0.43" stroke-miterlimit="10"/>
<path d="M882.898 57.0156H802.648V71.2164H882.898V57.0156Z" fill="url(#paint59_linear_9058_200174)" stroke="#E6E7E8" stroke-width="0.43" stroke-miterlimit="10"/>
<path d="M963.152 57.0156H882.902V71.2164H963.152V57.0156Z" fill="url(#paint60_linear_9058_200174)" stroke="#E6E7E8" stroke-width="0.43" stroke-miterlimit="10"/>
<path d="M80.4648 71.2139H0.214844V85.4147H80.4648V71.2139Z" fill="url(#paint61_linear_9058_200174)" stroke="#E6E7E8" stroke-width="0.43" stroke-miterlimit="10"/>
<path d="M160.699 71.2139H80.4492V85.4147H160.699V71.2139Z" fill="url(#paint62_linear_9058_200174)" stroke="#E6E7E8" stroke-width="0.43" stroke-miterlimit="10"/>
<path d="M240.949 71.2139H160.699V85.4147H240.949V71.2139Z" fill="url(#paint63_linear_9058_200174)" stroke="#E6E7E8" stroke-width="0.43" stroke-miterlimit="10"/>
<path d="M321.18 71.2139H240.93V85.4147H321.18V71.2139Z" fill="url(#paint64_linear_9058_200174)" stroke="#E6E7E8" stroke-width="0.43" stroke-miterlimit="10"/>
<path d="M401.434 71.2139H321.184V85.4147H401.434V71.2139Z" fill="url(#paint65_linear_9058_200174)" stroke="#E6E7E8" stroke-width="0.43" stroke-miterlimit="10"/>
<path d="M481.684 71.2139H401.434V85.4147H481.684V71.2139Z" fill="url(#paint66_linear_9058_200174)" stroke="#E6E7E8" stroke-width="0.43" stroke-miterlimit="10"/>
<path d="M561.914 71.2139H481.664V85.4147H561.914V71.2139Z" fill="url(#paint67_linear_9058_200174)" stroke="#E6E7E8" stroke-width="0.43" stroke-miterlimit="10"/>
<path d="M642.168 71.2139H561.918V85.4147H642.168V71.2139Z" fill="url(#paint68_linear_9058_200174)" stroke="#E6E7E8" stroke-width="0.43" stroke-miterlimit="10"/>
<path d="M722.418 71.2139H642.168V85.4147H722.418V71.2139Z" fill="url(#paint69_linear_9058_200174)" stroke="#E6E7E8" stroke-width="0.43" stroke-miterlimit="10"/>
<path d="M802.648 71.2139H722.398V85.4147H802.648V71.2139Z" fill="url(#paint70_linear_9058_200174)" stroke="#E6E7E8" stroke-width="0.43" stroke-miterlimit="10"/>
<path d="M882.898 71.2139H802.648V85.4147H882.898V71.2139Z" fill="url(#paint71_linear_9058_200174)" stroke="#E6E7E8" stroke-width="0.43" stroke-miterlimit="10"/>
<path d="M963.152 71.2139H882.902V85.4147H963.152V71.2139Z" fill="url(#paint72_linear_9058_200174)" stroke="#E6E7E8" stroke-width="0.43" stroke-miterlimit="10"/>
<path d="M80.4648 85.415H0.214844V99.6158H80.4648V85.415Z" fill="url(#paint73_linear_9058_200174)" stroke="#E6E7E8" stroke-width="0.43" stroke-miterlimit="10"/>
<path d="M160.699 85.415H80.4492V99.6158H160.699V85.415Z" fill="url(#paint74_linear_9058_200174)" stroke="#E6E7E8" stroke-width="0.43" stroke-miterlimit="10"/>
<path d="M240.949 85.415H160.699V99.6158H240.949V85.415Z" fill="url(#paint75_linear_9058_200174)" stroke="#E6E7E8" stroke-width="0.43" stroke-miterlimit="10"/>
<path d="M321.18 85.415H240.93V99.6158H321.18V85.415Z" fill="url(#paint76_linear_9058_200174)" stroke="#E6E7E8" stroke-width="0.43" stroke-miterlimit="10"/>
<path d="M401.434 85.415H321.184V99.6158H401.434V85.415Z" fill="url(#paint77_linear_9058_200174)" stroke="#E6E7E8" stroke-width="0.43" stroke-miterlimit="10"/>
<path d="M481.684 85.415H401.434V99.6158H481.684V85.415Z" fill="url(#paint78_linear_9058_200174)" stroke="#E6E7E8" stroke-width="0.43" stroke-miterlimit="10"/>
<path d="M561.914 85.415H481.664V99.6158H561.914V85.415Z" fill="url(#paint79_linear_9058_200174)" stroke="#E6E7E8" stroke-width="0.43" stroke-miterlimit="10"/>
<path d="M642.168 85.415H561.918V99.6158H642.168V85.415Z" fill="url(#paint80_linear_9058_200174)" stroke="#E6E7E8" stroke-width="0.43" stroke-miterlimit="10"/>
<path d="M722.418 85.415H642.168V99.6158H722.418V85.415Z" fill="url(#paint81_linear_9058_200174)" stroke="#E6E7E8" stroke-width="0.43" stroke-miterlimit="10"/>
<path d="M802.648 85.415H722.398V99.6158H802.648V85.415Z" fill="url(#paint82_linear_9058_200174)" stroke="#E6E7E8" stroke-width="0.43" stroke-miterlimit="10"/>
<path d="M882.898 85.415H802.648V99.6158H882.898V85.415Z" fill="url(#paint83_linear_9058_200174)" stroke="#E6E7E8" stroke-width="0.43" stroke-miterlimit="10"/>
<path d="M963.152 85.415H882.902V99.6158H963.152V85.415Z" fill="url(#paint84_linear_9058_200174)" stroke="#E6E7E8" stroke-width="0.43" stroke-miterlimit="10"/>
<path d="M80.4648 99.6123H0.214844V113.813H80.4648V99.6123Z" fill="url(#paint85_linear_9058_200174)" stroke="#E6E7E8" stroke-width="0.43" stroke-miterlimit="10"/>
<path d="M160.699 99.6123H80.4492V113.813H160.699V99.6123Z" fill="url(#paint86_linear_9058_200174)" stroke="#E6E7E8" stroke-width="0.43" stroke-miterlimit="10"/>
<path d="M240.949 99.6123H160.699V113.813H240.949V99.6123Z" fill="url(#paint87_linear_9058_200174)" stroke="#E6E7E8" stroke-width="0.43" stroke-miterlimit="10"/>
<path d="M321.18 99.6123H240.93V113.813H321.18V99.6123Z" fill="url(#paint88_linear_9058_200174)" stroke="#E6E7E8" stroke-width="0.43" stroke-miterlimit="10"/>
<path d="M401.434 99.6123H321.184V113.813H401.434V99.6123Z" fill="url(#paint89_linear_9058_200174)" stroke="#E6E7E8" stroke-width="0.43" stroke-miterlimit="10"/>
<path d="M481.684 99.6123H401.434V113.813H481.684V99.6123Z" fill="url(#paint90_linear_9058_200174)" stroke="#E6E7E8" stroke-width="0.43" stroke-miterlimit="10"/>
<path d="M561.914 99.6123H481.664V113.813H561.914V99.6123Z" fill="url(#paint91_linear_9058_200174)" stroke="#E6E7E8" stroke-width="0.43" stroke-miterlimit="10"/>
<path d="M642.168 99.6123H561.918V113.813H642.168V99.6123Z" fill="url(#paint92_linear_9058_200174)" stroke="#E6E7E8" stroke-width="0.43" stroke-miterlimit="10"/>
<path d="M722.418 99.6123H642.168V113.813H722.418V99.6123Z" fill="url(#paint93_linear_9058_200174)" stroke="#E6E7E8" stroke-width="0.43" stroke-miterlimit="10"/>
<path d="M802.648 99.6123H722.398V113.813H802.648V99.6123Z" fill="url(#paint94_linear_9058_200174)" stroke="#E6E7E8" stroke-width="0.43" stroke-miterlimit="10"/>
<path d="M882.898 99.6123H802.648V113.813H882.898V99.6123Z" fill="url(#paint95_linear_9058_200174)" stroke="#E6E7E8" stroke-width="0.43" stroke-miterlimit="10"/>
<path d="M963.152 99.6123H882.902V113.813H963.152V99.6123Z" fill="url(#paint96_linear_9058_200174)" stroke="#E6E7E8" stroke-width="0.43" stroke-miterlimit="10"/>
<path d="M80.4648 113.812H0.214844V128.013H80.4648V113.812Z" fill="url(#paint97_linear_9058_200174)" stroke="#E6E7E8" stroke-width="0.43" stroke-miterlimit="10"/>
<path d="M160.699 113.812H80.4492V128.013H160.699V113.812Z" fill="url(#paint98_linear_9058_200174)" stroke="#E6E7E8" stroke-width="0.43" stroke-miterlimit="10"/>
<path d="M240.949 113.812H160.699V128.013H240.949V113.812Z" fill="url(#paint99_linear_9058_200174)" stroke="#E6E7E8" stroke-width="0.43" stroke-miterlimit="10"/>
<path d="M321.18 113.812H240.93V128.013H321.18V113.812Z" fill="url(#paint100_linear_9058_200174)" stroke="#E6E7E8" stroke-width="0.43" stroke-miterlimit="10"/>
<path d="M401.434 113.812H321.184V128.013H401.434V113.812Z" fill="url(#paint101_linear_9058_200174)" stroke="#E6E7E8" stroke-width="0.43" stroke-miterlimit="10"/>
<path d="M481.684 113.812H401.434V128.013H481.684V113.812Z" fill="url(#paint102_linear_9058_200174)" stroke="#E6E7E8" stroke-width="0.43" stroke-miterlimit="10"/>
<path d="M561.914 113.812H481.664V128.013H561.914V113.812Z" fill="url(#paint103_linear_9058_200174)" stroke="#E6E7E8" stroke-width="0.43" stroke-miterlimit="10"/>
<path d="M642.168 113.812H561.918V128.013H642.168V113.812Z" fill="url(#paint104_linear_9058_200174)" stroke="#E6E7E8" stroke-width="0.43" stroke-miterlimit="10"/>
<path d="M722.418 113.812H642.168V128.013H722.418V113.812Z" fill="url(#paint105_linear_9058_200174)" stroke="#E6E7E8" stroke-width="0.43" stroke-miterlimit="10"/>
<path d="M802.648 113.812H722.398V128.013H802.648V113.812Z" fill="url(#paint106_linear_9058_200174)" stroke="#E6E7E8" stroke-width="0.43" stroke-miterlimit="10"/>
<path d="M882.898 113.812H802.648V128.013H882.898V113.812Z" fill="url(#paint107_linear_9058_200174)" stroke="#E6E7E8" stroke-width="0.43" stroke-miterlimit="10"/>
<path d="M963.152 113.812H882.902V128.013H963.152V113.812Z" fill="url(#paint108_linear_9058_200174)" stroke="#E6E7E8" stroke-width="0.43" stroke-miterlimit="10"/>
<path d="M80.4648 128.014H0.214844V142.214H80.4648V128.014Z" fill="url(#paint109_linear_9058_200174)" stroke="#E6E7E8" stroke-width="0.43" stroke-miterlimit="10"/>
<path d="M160.699 128.014H80.4492V142.214H160.699V128.014Z" fill="url(#paint110_linear_9058_200174)" stroke="#E6E7E8" stroke-width="0.43" stroke-miterlimit="10"/>
<path d="M240.949 128.014H160.699V142.214H240.949V128.014Z" fill="url(#paint111_linear_9058_200174)" stroke="#E6E7E8" stroke-width="0.43" stroke-miterlimit="10"/>
<path d="M321.18 128.014H240.93V142.214H321.18V128.014Z" fill="url(#paint112_linear_9058_200174)" stroke="#E6E7E8" stroke-width="0.43" stroke-miterlimit="10"/>
<path d="M401.434 128.014H321.184V142.214H401.434V128.014Z" fill="url(#paint113_linear_9058_200174)" stroke="#E6E7E8" stroke-width="0.43" stroke-miterlimit="10"/>
<path d="M481.684 128.014H401.434V142.214H481.684V128.014Z" fill="url(#paint114_linear_9058_200174)" stroke="#E6E7E8" stroke-width="0.43" stroke-miterlimit="10"/>
<path d="M561.914 128.014H481.664V142.214H561.914V128.014Z" fill="url(#paint115_linear_9058_200174)" stroke="#E6E7E8" stroke-width="0.43" stroke-miterlimit="10"/>
<path d="M642.168 128.014H561.918V142.214H642.168V128.014Z" fill="url(#paint116_linear_9058_200174)" stroke="#E6E7E8" stroke-width="0.43" stroke-miterlimit="10"/>
<path d="M722.418 128.014H642.168V142.214H722.418V128.014Z" fill="url(#paint117_linear_9058_200174)" stroke="#E6E7E8" stroke-width="0.43" stroke-miterlimit="10"/>
<path d="M802.648 128.014H722.398V142.214H802.648V128.014Z" fill="url(#paint118_linear_9058_200174)" stroke="#E6E7E8" stroke-width="0.43" stroke-miterlimit="10"/>
<path d="M882.898 128.014H802.648V142.214H882.898V128.014Z" fill="url(#paint119_linear_9058_200174)" stroke="#E6E7E8" stroke-width="0.43" stroke-miterlimit="10"/>
<path d="M963.152 128.014H882.902V142.214H963.152V128.014Z" fill="url(#paint120_linear_9058_200174)" stroke="#E6E7E8" stroke-width="0.43" stroke-miterlimit="10"/>
</g>
<g opacity="0.62">
<mask id="mask0_9058_200174" style="mask-type:luminance" maskUnits="userSpaceOnUse" x="449" y="0" width="514" height="143">
<path d="M962.921 0.214844H449.684V142.212H962.921V0.214844Z" fill="white"/>
</mask>
<g mask="url(#mask0_9058_200174)">
<path d="M863.715 122.215C897.68 122.215 925.215 98.0382 925.215 68.2148C925.215 38.3915 897.68 14.2148 863.715 14.2148C829.749 14.2148 802.215 38.3915 802.215 68.2148C802.215 98.0382 829.749 122.215 863.715 122.215Z" fill="url(#paint121_radial_9058_200174)"/>
</g>
</g>
<defs>
<linearGradient id="paint0_linear_9058_200174" x1="0.554688" y1="71.3872" x2="963.215" y2="71.3872" gradientUnits="userSpaceOnUse">
<stop stop-color="#6765EB"/>
<stop offset="1" stop-color="#951BB6"/>
</linearGradient>
<linearGradient id="paint1_linear_9058_200174" x1="-0.141032" y1="7.31524" x2="1.47659" y2="7.31524" gradientUnits="userSpaceOnUse">
<stop stop-color="white"/>
<stop offset="1"/>
</linearGradient>
<linearGradient id="paint2_linear_9058_200174" x1="80.4492" y1="7.31524" x2="160.699" y2="7.31524" gradientUnits="userSpaceOnUse">
<stop stop-color="white"/>
<stop offset="1"/>
</linearGradient>
<linearGradient id="paint3_linear_9058_200174" x1="160.699" y1="7.31524" x2="240.933" y2="7.31524" gradientUnits="userSpaceOnUse">
<stop stop-color="white"/>
<stop offset="1"/>
</linearGradient>
<linearGradient id="paint4_linear_9058_200174" x1="240.93" y1="7.31524" x2="321.18" y2="7.31524" gradientUnits="userSpaceOnUse">
<stop stop-color="white"/>
<stop offset="1"/>
</linearGradient>
<linearGradient id="paint5_linear_9058_200174" x1="321.184" y1="7.31524" x2="401.434" y2="7.31524" gradientUnits="userSpaceOnUse">
<stop stop-color="white"/>
<stop offset="1"/>
</linearGradient>
<linearGradient id="paint6_linear_9058_200174" x1="401.434" y1="7.31524" x2="481.667" y2="7.31524" gradientUnits="userSpaceOnUse">
<stop stop-color="white"/>
<stop offset="1"/>
</linearGradient>
<linearGradient id="paint7_linear_9058_200174" x1="481.664" y1="7.31524" x2="561.914" y2="7.31524" gradientUnits="userSpaceOnUse">
<stop stop-color="white"/>
<stop offset="1"/>
</linearGradient>
<linearGradient id="paint8_linear_9058_200174" x1="561.918" y1="7.31524" x2="642.168" y2="7.31524" gradientUnits="userSpaceOnUse">
<stop stop-color="white"/>
<stop offset="1"/>
</linearGradient>
<linearGradient id="paint9_linear_9058_200174" x1="642.168" y1="7.31524" x2="722.402" y2="7.31524" gradientUnits="userSpaceOnUse">
<stop stop-color="white"/>
<stop offset="1"/>
</linearGradient>
<linearGradient id="paint10_linear_9058_200174" x1="722.398" y1="7.31524" x2="802.648" y2="7.31524" gradientUnits="userSpaceOnUse">
<stop stop-color="white"/>
<stop offset="1"/>
</linearGradient>
<linearGradient id="paint11_linear_9058_200174" x1="802.648" y1="7.31524" x2="882.898" y2="7.31524" gradientUnits="userSpaceOnUse">
<stop stop-color="white"/>
<stop offset="1"/>
</linearGradient>
<linearGradient id="paint12_linear_9058_200174" x1="882.902" y1="7.31524" x2="963.136" y2="7.31524" gradientUnits="userSpaceOnUse">
<stop stop-color="white"/>
<stop offset="1"/>
</linearGradient>
<linearGradient id="paint13_linear_9058_200174" x1="-0.141032" y1="21.5164" x2="1.47659" y2="21.5164" gradientUnits="userSpaceOnUse">
<stop stop-color="white"/>
<stop offset="1"/>
</linearGradient>
<linearGradient id="paint14_linear_9058_200174" x1="80.4492" y1="21.5164" x2="160.699" y2="21.5164" gradientUnits="userSpaceOnUse">
<stop stop-color="white"/>
<stop offset="1"/>
</linearGradient>
<linearGradient id="paint15_linear_9058_200174" x1="160.699" y1="21.5164" x2="240.933" y2="21.5164" gradientUnits="userSpaceOnUse">
<stop stop-color="white"/>
<stop offset="1"/>
</linearGradient>
<linearGradient id="paint16_linear_9058_200174" x1="240.93" y1="21.5164" x2="321.18" y2="21.5164" gradientUnits="userSpaceOnUse">
<stop stop-color="white"/>
<stop offset="1"/>
</linearGradient>
<linearGradient id="paint17_linear_9058_200174" x1="321.184" y1="21.5164" x2="401.434" y2="21.5164" gradientUnits="userSpaceOnUse">
<stop stop-color="white"/>
<stop offset="1"/>
</linearGradient>
<linearGradient id="paint18_linear_9058_200174" x1="401.434" y1="21.5164" x2="481.667" y2="21.5164" gradientUnits="userSpaceOnUse">
<stop stop-color="white"/>
<stop offset="1"/>
</linearGradient>
<linearGradient id="paint19_linear_9058_200174" x1="481.664" y1="21.5164" x2="561.914" y2="21.5164" gradientUnits="userSpaceOnUse">
<stop stop-color="white"/>
<stop offset="1"/>
</linearGradient>
<linearGradient id="paint20_linear_9058_200174" x1="561.918" y1="21.5164" x2="642.168" y2="21.5164" gradientUnits="userSpaceOnUse">
<stop stop-color="white"/>
<stop offset="1"/>
</linearGradient>
<linearGradient id="paint21_linear_9058_200174" x1="642.168" y1="21.5164" x2="722.402" y2="21.5164" gradientUnits="userSpaceOnUse">
<stop stop-color="white"/>
<stop offset="1"/>
</linearGradient>
<linearGradient id="paint22_linear_9058_200174" x1="722.398" y1="21.5164" x2="802.648" y2="21.5164" gradientUnits="userSpaceOnUse">
<stop stop-color="white"/>
<stop offset="1"/>
</linearGradient>
<linearGradient id="paint23_linear_9058_200174" x1="802.648" y1="21.5164" x2="882.898" y2="21.5164" gradientUnits="userSpaceOnUse">
<stop stop-color="white"/>
<stop offset="1"/>
</linearGradient>
<linearGradient id="paint24_linear_9058_200174" x1="882.902" y1="21.5164" x2="963.136" y2="21.5164" gradientUnits="userSpaceOnUse">
<stop stop-color="white"/>
<stop offset="1"/>
</linearGradient>
<linearGradient id="paint25_linear_9058_200174" x1="-0.141032" y1="35.7147" x2="1.47659" y2="35.7147" gradientUnits="userSpaceOnUse">
<stop stop-color="white"/>
<stop offset="1"/>
</linearGradient>
<linearGradient id="paint26_linear_9058_200174" x1="80.4492" y1="35.7147" x2="160.699" y2="35.7147" gradientUnits="userSpaceOnUse">
<stop stop-color="white"/>
<stop offset="1"/>
</linearGradient>
<linearGradient id="paint27_linear_9058_200174" x1="160.699" y1="35.7147" x2="240.933" y2="35.7147" gradientUnits="userSpaceOnUse">
<stop stop-color="white"/>
<stop offset="1"/>
</linearGradient>
<linearGradient id="paint28_linear_9058_200174" x1="240.93" y1="35.7147" x2="321.18" y2="35.7147" gradientUnits="userSpaceOnUse">
<stop stop-color="white"/>
<stop offset="1"/>
</linearGradient>
<linearGradient id="paint29_linear_9058_200174" x1="321.184" y1="35.7147" x2="401.434" y2="35.7147" gradientUnits="userSpaceOnUse">
<stop stop-color="white"/>
<stop offset="1"/>
</linearGradient>
<linearGradient id="paint30_linear_9058_200174" x1="401.434" y1="35.7147" x2="481.667" y2="35.7147" gradientUnits="userSpaceOnUse">
<stop stop-color="white"/>
<stop offset="1"/>
</linearGradient>
<linearGradient id="paint31_linear_9058_200174" x1="481.664" y1="35.7147" x2="561.914" y2="35.7147" gradientUnits="userSpaceOnUse">
<stop stop-color="white"/>
<stop offset="1"/>
</linearGradient>
<linearGradient id="paint32_linear_9058_200174" x1="561.918" y1="35.7147" x2="642.168" y2="35.7147" gradientUnits="userSpaceOnUse">
<stop stop-color="white"/>
<stop offset="1"/>
</linearGradient>
<linearGradient id="paint33_linear_9058_200174" x1="642.168" y1="35.7147" x2="722.402" y2="35.7147" gradientUnits="userSpaceOnUse">
<stop stop-color="white"/>
<stop offset="1"/>
</linearGradient>
<linearGradient id="paint34_linear_9058_200174" x1="722.398" y1="35.7147" x2="802.648" y2="35.7147" gradientUnits="userSpaceOnUse">
<stop stop-color="white"/>
<stop offset="1"/>
</linearGradient>
<linearGradient id="paint35_linear_9058_200174" x1="802.648" y1="35.7147" x2="882.898" y2="35.7147" gradientUnits="userSpaceOnUse">
<stop stop-color="white"/>
<stop offset="1"/>
</linearGradient>
<linearGradient id="paint36_linear_9058_200174" x1="882.902" y1="35.7147" x2="963.136" y2="35.7147" gradientUnits="userSpaceOnUse">
<stop stop-color="white"/>
<stop offset="1"/>
</linearGradient>
<linearGradient id="paint37_linear_9058_200174" x1="-0.141032" y1="49.9148" x2="1.47659" y2="49.9148" gradientUnits="userSpaceOnUse">
<stop stop-color="white"/>
<stop offset="1"/>
</linearGradient>
<linearGradient id="paint38_linear_9058_200174" x1="80.4492" y1="49.9148" x2="160.699" y2="49.9148" gradientUnits="userSpaceOnUse">
<stop stop-color="white"/>
<stop offset="1"/>
</linearGradient>
<linearGradient id="paint39_linear_9058_200174" x1="160.699" y1="49.9148" x2="240.933" y2="49.9148" gradientUnits="userSpaceOnUse">
<stop stop-color="white"/>
<stop offset="1"/>
</linearGradient>
<linearGradient id="paint40_linear_9058_200174" x1="240.93" y1="49.9148" x2="321.18" y2="49.9148" gradientUnits="userSpaceOnUse">
<stop stop-color="white"/>
<stop offset="1"/>
</linearGradient>
<linearGradient id="paint41_linear_9058_200174" x1="321.184" y1="49.9148" x2="401.434" y2="49.9148" gradientUnits="userSpaceOnUse">
<stop stop-color="white"/>
<stop offset="1"/>
</linearGradient>
<linearGradient id="paint42_linear_9058_200174" x1="401.434" y1="49.9148" x2="481.667" y2="49.9148" gradientUnits="userSpaceOnUse">
<stop stop-color="white"/>
<stop offset="1"/>
</linearGradient>
<linearGradient id="paint43_linear_9058_200174" x1="481.664" y1="49.9148" x2="561.914" y2="49.9148" gradientUnits="userSpaceOnUse">
<stop stop-color="white"/>
<stop offset="1"/>
</linearGradient>
<linearGradient id="paint44_linear_9058_200174" x1="561.918" y1="49.9148" x2="642.168" y2="49.9148" gradientUnits="userSpaceOnUse">
<stop stop-color="white"/>
<stop offset="1"/>
</linearGradient>
<linearGradient id="paint45_linear_9058_200174" x1="642.168" y1="49.9148" x2="722.402" y2="49.9148" gradientUnits="userSpaceOnUse">
<stop stop-color="white"/>
<stop offset="1"/>
</linearGradient>
<linearGradient id="paint46_linear_9058_200174" x1="722.398" y1="49.9148" x2="802.648" y2="49.9148" gradientUnits="userSpaceOnUse">
<stop stop-color="white"/>
<stop offset="1"/>
</linearGradient>
<linearGradient id="paint47_linear_9058_200174" x1="802.648" y1="49.9148" x2="882.898" y2="49.9148" gradientUnits="userSpaceOnUse">
<stop stop-color="white"/>
<stop offset="1"/>
</linearGradient>
<linearGradient id="paint48_linear_9058_200174" x1="882.902" y1="49.9148" x2="963.136" y2="49.9148" gradientUnits="userSpaceOnUse">
<stop stop-color="white"/>
<stop offset="1"/>
</linearGradient>
<linearGradient id="paint49_linear_9058_200174" x1="-0.141032" y1="64.1133" x2="1.47659" y2="64.1133" gradientUnits="userSpaceOnUse">
<stop stop-color="white"/>
<stop offset="1"/>
</linearGradient>
<linearGradient id="paint50_linear_9058_200174" x1="80.4492" y1="64.1133" x2="160.699" y2="64.1133" gradientUnits="userSpaceOnUse">
<stop stop-color="white"/>
<stop offset="1"/>
</linearGradient>
<linearGradient id="paint51_linear_9058_200174" x1="160.699" y1="64.1133" x2="240.933" y2="64.1133" gradientUnits="userSpaceOnUse">
<stop stop-color="white"/>
<stop offset="1"/>
</linearGradient>
<linearGradient id="paint52_linear_9058_200174" x1="240.93" y1="64.1133" x2="321.18" y2="64.1133" gradientUnits="userSpaceOnUse">
<stop stop-color="white"/>
<stop offset="1"/>
</linearGradient>
<linearGradient id="paint53_linear_9058_200174" x1="321.184" y1="64.1133" x2="401.434" y2="64.1133" gradientUnits="userSpaceOnUse">
<stop stop-color="white"/>
<stop offset="1"/>
</linearGradient>
<linearGradient id="paint54_linear_9058_200174" x1="401.434" y1="64.1133" x2="481.667" y2="64.1133" gradientUnits="userSpaceOnUse">
<stop stop-color="white"/>
<stop offset="1"/>
</linearGradient>
<linearGradient id="paint55_linear_9058_200174" x1="481.664" y1="64.1133" x2="561.914" y2="64.1133" gradientUnits="userSpaceOnUse">
<stop stop-color="white"/>
<stop offset="1"/>
</linearGradient>
<linearGradient id="paint56_linear_9058_200174" x1="561.918" y1="64.1133" x2="642.168" y2="64.1133" gradientUnits="userSpaceOnUse">
<stop stop-color="white"/>
<stop offset="1"/>
</linearGradient>
<linearGradient id="paint57_linear_9058_200174" x1="642.168" y1="64.1133" x2="722.402" y2="64.1133" gradientUnits="userSpaceOnUse">
<stop stop-color="white"/>
<stop offset="1"/>
</linearGradient>
<linearGradient id="paint58_linear_9058_200174" x1="722.398" y1="64.1133" x2="802.648" y2="64.1133" gradientUnits="userSpaceOnUse">
<stop stop-color="white"/>
<stop offset="1"/>
</linearGradient>
<linearGradient id="paint59_linear_9058_200174" x1="802.648" y1="64.1133" x2="882.898" y2="64.1133" gradientUnits="userSpaceOnUse">
<stop stop-color="white"/>
<stop offset="1"/>
</linearGradient>
<linearGradient id="paint60_linear_9058_200174" x1="882.902" y1="64.1133" x2="963.136" y2="64.1133" gradientUnits="userSpaceOnUse">
<stop stop-color="white"/>
<stop offset="1"/>
</linearGradient>
<linearGradient id="paint61_linear_9058_200174" x1="-0.141032" y1="78.3143" x2="1.47659" y2="78.3143" gradientUnits="userSpaceOnUse">
<stop stop-color="white"/>
<stop offset="1"/>
</linearGradient>
<linearGradient id="paint62_linear_9058_200174" x1="80.4492" y1="78.3143" x2="160.699" y2="78.3143" gradientUnits="userSpaceOnUse">
<stop stop-color="white"/>
<stop offset="1"/>
</linearGradient>
<linearGradient id="paint63_linear_9058_200174" x1="160.699" y1="78.3143" x2="240.933" y2="78.3143" gradientUnits="userSpaceOnUse">
<stop stop-color="white"/>
<stop offset="1"/>
</linearGradient>
<linearGradient id="paint64_linear_9058_200174" x1="240.93" y1="78.3143" x2="321.18" y2="78.3143" gradientUnits="userSpaceOnUse">
<stop stop-color="white"/>
<stop offset="1"/>
</linearGradient>
<linearGradient id="paint65_linear_9058_200174" x1="321.184" y1="78.3143" x2="401.434" y2="78.3143" gradientUnits="userSpaceOnUse">
<stop stop-color="white"/>
<stop offset="1"/>
</linearGradient>
<linearGradient id="paint66_linear_9058_200174" x1="401.434" y1="78.3143" x2="481.667" y2="78.3143" gradientUnits="userSpaceOnUse">
<stop stop-color="white"/>
<stop offset="1"/>
</linearGradient>
<linearGradient id="paint67_linear_9058_200174" x1="481.664" y1="78.3143" x2="561.914" y2="78.3143" gradientUnits="userSpaceOnUse">
<stop stop-color="white"/>
<stop offset="1"/>
</linearGradient>
<linearGradient id="paint68_linear_9058_200174" x1="561.918" y1="78.3143" x2="642.168" y2="78.3143" gradientUnits="userSpaceOnUse">
<stop stop-color="white"/>
<stop offset="1"/>
</linearGradient>
<linearGradient id="paint69_linear_9058_200174" x1="642.168" y1="78.3143" x2="722.402" y2="78.3143" gradientUnits="userSpaceOnUse">
<stop stop-color="white"/>
<stop offset="1"/>
</linearGradient>
<linearGradient id="paint70_linear_9058_200174" x1="722.398" y1="78.3143" x2="802.648" y2="78.3143" gradientUnits="userSpaceOnUse">
<stop stop-color="white"/>
<stop offset="1"/>
</linearGradient>
<linearGradient id="paint71_linear_9058_200174" x1="802.648" y1="78.3143" x2="882.898" y2="78.3143" gradientUnits="userSpaceOnUse">
<stop stop-color="white"/>
<stop offset="1"/>
</linearGradient>
<linearGradient id="paint72_linear_9058_200174" x1="882.902" y1="78.3143" x2="963.136" y2="78.3143" gradientUnits="userSpaceOnUse">
<stop stop-color="white"/>
<stop offset="1"/>
</linearGradient>
<linearGradient id="paint73_linear_9058_200174" x1="-0.141032" y1="92.5154" x2="1.47659" y2="92.5154" gradientUnits="userSpaceOnUse">
<stop stop-color="white"/>
<stop offset="1"/>
</linearGradient>
<linearGradient id="paint74_linear_9058_200174" x1="80.4492" y1="92.5154" x2="160.699" y2="92.5154" gradientUnits="userSpaceOnUse">
<stop stop-color="white"/>
<stop offset="1"/>
</linearGradient>
<linearGradient id="paint75_linear_9058_200174" x1="160.699" y1="92.5154" x2="240.933" y2="92.5154" gradientUnits="userSpaceOnUse">
<stop stop-color="white"/>
<stop offset="1"/>
</linearGradient>
<linearGradient id="paint76_linear_9058_200174" x1="240.93" y1="92.5154" x2="321.18" y2="92.5154" gradientUnits="userSpaceOnUse">
<stop stop-color="white"/>
<stop offset="1"/>
</linearGradient>
<linearGradient id="paint77_linear_9058_200174" x1="321.184" y1="92.5154" x2="401.434" y2="92.5154" gradientUnits="userSpaceOnUse">
<stop stop-color="white"/>
<stop offset="1"/>
</linearGradient>
<linearGradient id="paint78_linear_9058_200174" x1="401.434" y1="92.5154" x2="481.667" y2="92.5154" gradientUnits="userSpaceOnUse">
<stop stop-color="white"/>
<stop offset="1"/>
</linearGradient>
<linearGradient id="paint79_linear_9058_200174" x1="481.664" y1="92.5154" x2="561.914" y2="92.5154" gradientUnits="userSpaceOnUse">
<stop stop-color="white"/>
<stop offset="1"/>
</linearGradient>
<linearGradient id="paint80_linear_9058_200174" x1="561.918" y1="92.5154" x2="642.168" y2="92.5154" gradientUnits="userSpaceOnUse">
<stop stop-color="white"/>
<stop offset="1"/>
</linearGradient>
<linearGradient id="paint81_linear_9058_200174" x1="642.168" y1="92.5154" x2="722.402" y2="92.5154" gradientUnits="userSpaceOnUse">
<stop stop-color="white"/>
<stop offset="1"/>
</linearGradient>
<linearGradient id="paint82_linear_9058_200174" x1="722.398" y1="92.5154" x2="802.648" y2="92.5154" gradientUnits="userSpaceOnUse">
<stop stop-color="white"/>
<stop offset="1"/>
</linearGradient>
<linearGradient id="paint83_linear_9058_200174" x1="802.648" y1="92.5154" x2="882.898" y2="92.5154" gradientUnits="userSpaceOnUse">
<stop stop-color="white"/>
<stop offset="1"/>
</linearGradient>
<linearGradient id="paint84_linear_9058_200174" x1="882.902" y1="92.5154" x2="963.136" y2="92.5154" gradientUnits="userSpaceOnUse">
<stop stop-color="white"/>
<stop offset="1"/>
</linearGradient>
<linearGradient id="paint85_linear_9058_200174" x1="-0.141032" y1="106.713" x2="1.47659" y2="106.713" gradientUnits="userSpaceOnUse">
<stop stop-color="white"/>
<stop offset="1"/>
</linearGradient>
<linearGradient id="paint86_linear_9058_200174" x1="80.4492" y1="106.713" x2="160.699" y2="106.713" gradientUnits="userSpaceOnUse">
<stop stop-color="white"/>
<stop offset="1"/>
</linearGradient>
<linearGradient id="paint87_linear_9058_200174" x1="160.699" y1="106.713" x2="240.933" y2="106.713" gradientUnits="userSpaceOnUse">
<stop stop-color="white"/>
<stop offset="1"/>
</linearGradient>
<linearGradient id="paint88_linear_9058_200174" x1="240.93" y1="106.713" x2="321.18" y2="106.713" gradientUnits="userSpaceOnUse">
<stop stop-color="white"/>
<stop offset="1"/>
</linearGradient>
<linearGradient id="paint89_linear_9058_200174" x1="321.184" y1="106.713" x2="401.434" y2="106.713" gradientUnits="userSpaceOnUse">
<stop stop-color="white"/>
<stop offset="1"/>
</linearGradient>
<linearGradient id="paint90_linear_9058_200174" x1="401.434" y1="106.713" x2="481.667" y2="106.713" gradientUnits="userSpaceOnUse">
<stop stop-color="white"/>
<stop offset="1"/>
</linearGradient>
<linearGradient id="paint91_linear_9058_200174" x1="481.664" y1="106.713" x2="561.914" y2="106.713" gradientUnits="userSpaceOnUse">
<stop stop-color="white"/>
<stop offset="1"/>
</linearGradient>
<linearGradient id="paint92_linear_9058_200174" x1="561.918" y1="106.713" x2="642.168" y2="106.713" gradientUnits="userSpaceOnUse">
<stop stop-color="white"/>
<stop offset="1"/>
</linearGradient>
<linearGradient id="paint93_linear_9058_200174" x1="642.168" y1="106.713" x2="722.402" y2="106.713" gradientUnits="userSpaceOnUse">
<stop stop-color="white"/>
<stop offset="1"/>
</linearGradient>
<linearGradient id="paint94_linear_9058_200174" x1="722.398" y1="106.713" x2="802.648" y2="106.713" gradientUnits="userSpaceOnUse">
<stop stop-color="white"/>
<stop offset="1"/>
</linearGradient>
<linearGradient id="paint95_linear_9058_200174" x1="802.648" y1="106.713" x2="882.898" y2="106.713" gradientUnits="userSpaceOnUse">
<stop stop-color="white"/>
<stop offset="1"/>
</linearGradient>
<linearGradient id="paint96_linear_9058_200174" x1="882.902" y1="106.713" x2="963.136" y2="106.713" gradientUnits="userSpaceOnUse">
<stop stop-color="white"/>
<stop offset="1"/>
</linearGradient>
<linearGradient id="paint97_linear_9058_200174" x1="-0.141032" y1="120.913" x2="1.47659" y2="120.913" gradientUnits="userSpaceOnUse">
<stop stop-color="white"/>
<stop offset="1"/>
</linearGradient>
<linearGradient id="paint98_linear_9058_200174" x1="80.4492" y1="120.913" x2="160.699" y2="120.913" gradientUnits="userSpaceOnUse">
<stop stop-color="white"/>
<stop offset="1"/>
</linearGradient>
<linearGradient id="paint99_linear_9058_200174" x1="160.699" y1="120.913" x2="240.933" y2="120.913" gradientUnits="userSpaceOnUse">
<stop stop-color="white"/>
<stop offset="1"/>
</linearGradient>
<linearGradient id="paint100_linear_9058_200174" x1="240.93" y1="120.913" x2="321.18" y2="120.913" gradientUnits="userSpaceOnUse">
<stop stop-color="white"/>
<stop offset="1"/>
</linearGradient>
<linearGradient id="paint101_linear_9058_200174" x1="321.184" y1="120.913" x2="401.434" y2="120.913" gradientUnits="userSpaceOnUse">
<stop stop-color="white"/>
<stop offset="1"/>
</linearGradient>
<linearGradient id="paint102_linear_9058_200174" x1="401.434" y1="120.913" x2="481.667" y2="120.913" gradientUnits="userSpaceOnUse">
<stop stop-color="white"/>
<stop offset="1"/>
</linearGradient>
<linearGradient id="paint103_linear_9058_200174" x1="481.664" y1="120.913" x2="561.914" y2="120.913" gradientUnits="userSpaceOnUse">
<stop stop-color="white"/>
<stop offset="1"/>
</linearGradient>
<linearGradient id="paint104_linear_9058_200174" x1="561.918" y1="120.913" x2="642.168" y2="120.913" gradientUnits="userSpaceOnUse">
<stop stop-color="white"/>
<stop offset="1"/>
</linearGradient>
<linearGradient id="paint105_linear_9058_200174" x1="642.168" y1="120.913" x2="722.402" y2="120.913" gradientUnits="userSpaceOnUse">
<stop stop-color="white"/>
<stop offset="1"/>
</linearGradient>
<linearGradient id="paint106_linear_9058_200174" x1="722.398" y1="120.913" x2="802.648" y2="120.913" gradientUnits="userSpaceOnUse">
<stop stop-color="white"/>
<stop offset="1"/>
</linearGradient>
<linearGradient id="paint107_linear_9058_200174" x1="802.648" y1="120.913" x2="882.898" y2="120.913" gradientUnits="userSpaceOnUse">
<stop stop-color="white"/>
<stop offset="1"/>
</linearGradient>
<linearGradient id="paint108_linear_9058_200174" x1="882.902" y1="120.913" x2="963.136" y2="120.913" gradientUnits="userSpaceOnUse">
<stop stop-color="white"/>
<stop offset="1"/>
</linearGradient>
<linearGradient id="paint109_linear_9058_200174" x1="-0.141032" y1="135.114" x2="1.47659" y2="135.114" gradientUnits="userSpaceOnUse">
<stop stop-color="white"/>
<stop offset="1"/>
</linearGradient>
<linearGradient id="paint110_linear_9058_200174" x1="80.4492" y1="135.114" x2="160.699" y2="135.114" gradientUnits="userSpaceOnUse">
<stop stop-color="white"/>
<stop offset="1"/>
</linearGradient>
<linearGradient id="paint111_linear_9058_200174" x1="160.699" y1="135.114" x2="240.933" y2="135.114" gradientUnits="userSpaceOnUse">
<stop stop-color="white"/>
<stop offset="1"/>
</linearGradient>
<linearGradient id="paint112_linear_9058_200174" x1="240.93" y1="135.114" x2="321.18" y2="135.114" gradientUnits="userSpaceOnUse">
<stop stop-color="white"/>
<stop offset="1"/>
</linearGradient>
<linearGradient id="paint113_linear_9058_200174" x1="321.184" y1="135.114" x2="401.434" y2="135.114" gradientUnits="userSpaceOnUse">
<stop stop-color="white"/>
<stop offset="1"/>
</linearGradient>
<linearGradient id="paint114_linear_9058_200174" x1="401.434" y1="135.114" x2="481.667" y2="135.114" gradientUnits="userSpaceOnUse">
<stop stop-color="white"/>
<stop offset="1"/>
</linearGradient>
<linearGradient id="paint115_linear_9058_200174" x1="481.664" y1="135.114" x2="561.914" y2="135.114" gradientUnits="userSpaceOnUse">
<stop stop-color="white"/>
<stop offset="1"/>
</linearGradient>
<linearGradient id="paint116_linear_9058_200174" x1="561.918" y1="135.114" x2="642.168" y2="135.114" gradientUnits="userSpaceOnUse">
<stop stop-color="white"/>
<stop offset="1"/>
</linearGradient>
<linearGradient id="paint117_linear_9058_200174" x1="642.168" y1="135.114" x2="722.402" y2="135.114" gradientUnits="userSpaceOnUse">
<stop stop-color="white"/>
<stop offset="1"/>
</linearGradient>
<linearGradient id="paint118_linear_9058_200174" x1="722.398" y1="135.114" x2="802.648" y2="135.114" gradientUnits="userSpaceOnUse">
<stop stop-color="white"/>
<stop offset="1"/>
</linearGradient>
<linearGradient id="paint119_linear_9058_200174" x1="802.648" y1="135.114" x2="882.898" y2="135.114" gradientUnits="userSpaceOnUse">
<stop stop-color="white"/>
<stop offset="1"/>
</linearGradient>
<linearGradient id="paint120_linear_9058_200174" x1="882.902" y1="135.114" x2="963.136" y2="135.114" gradientUnits="userSpaceOnUse">
<stop stop-color="white"/>
<stop offset="1"/>
</linearGradient>
<radialGradient id="paint121_radial_9058_200174" cx="0" cy="0" r="1" gradientTransform="matrix(43.4871 38.1838 -43.4871 38.1838 863.716 68.2154)" gradientUnits="userSpaceOnUse">
<stop stop-color="white" stop-opacity="0.4"/>
<stop offset="1" stop-color="white" stop-opacity="0"/>
</radialGradient>
</defs>
</svg>
